<?xml version="1.0" encoding="UTF-8" standalone="no"?>
<!DOCTYPE svg PUBLIC "-//W3C//DTD SVG 1.1//EN" "http://www.w3.org/Graphics/SVG/1.1/DTD/svg11.dtd">
<svg xmlns="http://www.w3.org/2000/svg" version="1.1" viewBox="0.00 0.00 1024.00 1024.00">
<path fill="#121d2c" d="
  M 1024.00 0.00
  L 1024.00 1024.00
  L 0.00 1024.00
  L 0.00 0.00
  L 1024.00 0.00
  Z"
/>
<path fill="#fefdfc" d="
  M 347.15 718.05
  C 306.89 682.89 277.78 634.91 265.78 582.72
  Q 262.09 566.63 260.07 546.86
  C 255.26 499.77 263.64 452.77 283.95 409.71
  C 324.93 322.85 413.74 266.73 509.54 264.99
  C 568.52 263.92 626.50 284.39 672.51 321.21
  Q 692.96 337.58 711.25 359.49
  C 765.16 424.08 780.86 509.52 760.38 589.66
  C 740.76 666.48 684.24 730.00 611.67 760.88
  Q 563.81 781.25 509.23 780.25
  Q 416.40 778.54 347.15 718.05
  Z"
/>
<path fill="#121d2c" d="
  M 284.18 553.35
  A 0.30 0.29 63.8 0 1 283.69 553.18
  Q 282.98 548.89 282.89 548.06
  C 280.38 524.99 281.58 501.65 285.42 478.79
  Q 294.61 424.23 327.94 379.15
  Q 357.03 339.83 400.32 316.04
  Q 463.91 281.11 536.82 288.27
  C 581.39 292.65 625.99 310.74 660.97 339.53
  Q 702.81 373.97 724.89 422.62
  C 744.43 465.66 751.34 512.84 743.78 559.60
  A 0.61 0.61 0.0 0 1 742.80 559.97
  L 652.22 485.64
  A 0.69 0.68 -48.8 0 0 651.29 485.71
  L 635.63 502.59
  A 0.32 0.31 -45.6 0 1 635.17 502.60
  C 601.43 467.96 571.02 435.40 534.67 396.26
  A 1.36 1.35 44.2 0 0 532.67 396.28
  Q 514.35 416.83 494.45 437.20
  Q 470.73 461.50 443.56 483.31
  Q 436.73 488.80 429.57 493.94
  A 0.48 0.47 -39.1 0 1 428.95 493.88
  Q 426.75 491.56 425.15 490.34
  Q 411.30 479.74 385.46 459.08
  A 0.41 0.41 0.0 0 0 384.92 459.10
  L 284.18 553.35
  Z"
/>
<path fill="#121d2c" d="
  M 299.09 611.65
  Q 305.50 606.66 395.77 538.41
  C 411.72 526.35 431.79 510.62 450.95 495.94
  Q 484.44 470.28 513.55 439.04
  Q 524.90 426.85 533.39 417.76
  A 0.39 0.38 45.5 0 1 533.95 417.77
  Q 561.76 447.92 561.80 447.95
  Q 599.45 488.43 636.64 525.71
  A 0.16 0.16 0.0 0 0 636.87 525.71
  L 653.86 507.39
  A 0.43 0.43 0.0 0 1 654.44 507.35
  L 740.15 576.88
  A 0.96 0.94 -63.1 0 1 740.47 577.88
  Q 738.42 585.16 734.53 597.04
  Q 725.14 625.73 710.08 650.93
  A 0.58 0.58 0.0 0 1 709.24 651.10
  C 676.34 626.90 644.81 601.02 613.38 572.30
  Q 560.24 523.74 509.43 469.58
  A 1.61 1.61 0.0 0 0 507.19 469.48
  Q 493.20 482.02 479.08 493.31
  Q 425.73 535.93 345.47 595.21
  Q 324.42 610.76 304.99 623.86
  A 0.43 0.43 0.0 0 1 304.36 623.69
  L 298.91 612.44
  A 0.65 0.64 58.0 0 1 299.09 611.65
  Z"
/>
<path fill="#121d2c" d="
  M 294.45 596.08
  A 0.88 0.88 0.0 0 1 293.09 595.67
  Q 288.67 583.05 286.88 572.25
  A 1.05 1.03 63.8 0 1 287.18 571.35
  L 384.58 479.23
  A 1.63 1.62 -47.0 0 1 386.72 479.15
  L 415.40 502.42
  A 1.00 1.00 0.0 0 1 415.41 503.97
  Q 399.25 517.16 381.09 530.83
  Q 356.27 549.51 294.45 596.08
  Z"
/>
<path fill="#121d2c" d="
  M 333.07 670.80
  A 0.39 0.38 55.8 0 1 332.57 670.70
  Q 321.14 656.17 312.08 640.53
  A 0.82 0.81 57.2 0 1 312.31 639.46
  Q 389.92 583.83 464.11 525.70
  C 479.64 513.53 492.17 503.04 506.16 491.27
  A 0.72 0.72 0.0 0 1 507.15 491.33
  L 529.50 515.22
  A 1.58 1.58 0.0 0 1 529.55 517.33
  C 523.53 524.38 516.75 531.00 510.41 537.42
  Q 463.87 584.55 409.97 621.71
  Q 370.53 648.90 333.07 670.80
  Z"
/>
<path fill="#121d2c" d="
  M 699.60 666.06
  C 662.92 714.72 607.62 748.50 546.79 756.40
  C 504.60 761.89 460.80 756.54 422.11 740.09
  Q 379.12 721.81 346.61 687.42
  Q 345.45 686.20 344.74 685.14
  A 0.53 0.52 -32.7 0 1 344.91 684.40
  Q 378.11 663.73 402.79 647.53
  Q 458.98 610.65 504.86 566.36
  Q 525.73 546.22 541.94 528.46
  A 0.91 0.90 43.9 0 1 543.25 528.44
  C 586.51 572.58 632.74 614.04 682.10 651.66
  Q 684.65 653.60 699.45 664.91
  A 0.82 0.82 0.0 0 1 699.60 666.06
  Z"
/>
</svg>
